<?xml version="1.0" encoding="UTF-8"?>
<svg version="1.1" xmlns="http://www.w3.org/2000/svg" width="128" height="128">
<path d="M0 0 C38.28 0 76.56 0 116 0 C114.00132358 3.99735284 112.11332847 6.16271781 109.00292969 9.31933594 C108.49533615 9.83685928 107.98774261 10.35438263 107.46476746 10.8875885 C105.78937348 12.59211509 104.1063534 14.2888281 102.421875 15.984375 C101.25083068 17.16692772 100.07978988 18.34948392 98.90875244 19.53204346 C96.45460067 22.00718115 93.99584281 24.4776478 91.53466797 26.94580078 C88.38249043 30.10896613 85.24930158 33.29026174 82.12018967 36.47622299 C79.70929064 38.92436347 77.28508549 41.35899027 74.85703278 43.79010773 C73.69584036 44.95735275 72.53965138 46.12959758 71.38863373 47.30687714 C69.77779898 48.95182662 68.14908683 50.57679013 66.51464844 52.19824219 C65.1313736 53.59245392 65.1313736 53.59245392 63.72015381 55.01483154 C61 57 61 57 58.01345825 57.61367798 C54.03757164 56.80400555 51.99377565 54.80854513 49.27001953 51.98291016 C48.73269699 51.44967636 48.19537445 50.91644257 47.64176941 50.36705017 C45.87392608 48.60521126 44.12847286 46.82286139 42.3828125 45.0390625 C41.15944271 43.80957649 39.93488706 42.58126938 38.709198 41.35409546 C36.14647188 38.78217117 33.59387385 36.20074754 31.04882812 33.61132812 C27.78043954 30.2862558 24.49483192 26.97889636 21.20245552 23.67759132 C18.67592807 21.14276728 16.15511411 18.6023303 13.63637924 16.05976486 C12.42600629 14.83797135 11.21467439 13.61712707 10.00238419 12.39723587 C8.31412072 10.69528208 6.63283302 8.98675024 4.95361328 7.27587891 C4.44874893 6.76877884 3.94388458 6.26167877 3.42372131 5.73921204 C0 2.22938802 0 2.22938802 0 0 Z " fill="#594F41" transform="translate(6,19)"/>
<path d="M0 0 C4.54339623 2.11902143 7.2869348 5.2673945 10.68359375 8.90625 C14.0947736 11.98954242 16.73866215 12.97620117 21.3125 13.0625 C26.41320204 11.59280619 29.29159251 8.68513296 33 5 C33.53367187 4.48050781 34.06734375 3.96101563 34.6171875 3.42578125 C35.76001786 2.29909256 36.88280226 1.15211017 38 0 C41.16800074 1.40220649 43.31175668 3.05914166 45.75878906 5.5 C46.47923401 6.21414062 47.19967896 6.92828125 47.94195557 7.6640625 C48.70876648 8.43492188 49.47557739 9.20578125 50.265625 10 C51.05902283 10.79148437 51.85242065 11.58296875 52.66986084 12.3984375 C54.34324054 14.07045737 56.01410181 15.74500097 57.68261719 17.421875 C60.24713597 19.99712398 62.82216989 22.56151052 65.3984375 25.125 C67.02147527 26.74935884 68.64389281 28.37433769 70.265625 30 C71.04053284 30.77085938 71.81544067 31.54171875 72.61383057 32.3359375 C73.67558502 33.40714844 73.67558502 33.40714844 74.75878906 34.5 C75.38626038 35.1290625 76.01373169 35.758125 76.66021729 36.40625 C78 38 78 38 78 40 C39.72 40 1.44 40 -38 40 C-36.26243822 36.52487644 -35.12313341 34.87751709 -32.46826172 32.24121094 C-31.74766571 31.52076599 -31.0270697 30.80032104 -30.28463745 30.05804443 C-29.11893723 28.90782806 -29.11893723 28.90782806 -27.9296875 27.734375 C-27.13345978 26.94097717 -26.33723206 26.14757935 -25.51687622 25.33013916 C-22.97424052 22.79869297 -20.42473652 20.27429197 -17.875 17.75 C-16.14928247 16.03431383 -14.42401645 14.31817338 -12.69921875 12.6015625 C-8.47136968 8.39575752 -4.23786131 4.19571493 0 0 Z " fill="#594E40" transform="translate(44,69)"/>
<path d="M0 0 C0 25.74 0 51.48 0 78 C-3.47512356 76.26243822 -5.12248291 75.12313341 -7.75878906 72.46826172 C-8.47923401 71.74766571 -9.19967896 71.0270697 -9.94195557 70.28463745 C-10.70876648 69.50750397 -11.47557739 68.73037048 -12.265625 67.9296875 C-13.05902283 67.13345978 -13.85242065 66.33723206 -14.66986084 65.51687622 C-17.20130703 62.97424052 -19.72570803 60.42473652 -22.25 57.875 C-23.96568617 56.14928247 -25.68182662 54.42401645 -27.3984375 52.69921875 C-31.60424248 48.47136968 -35.80428507 44.23786131 -40 40 C-38.59779351 36.83199926 -36.94085834 34.68824332 -34.5 32.24121094 C-33.78585938 31.52076599 -33.07171875 30.80032104 -32.3359375 30.05804443 C-31.56507812 29.29123352 -30.79421875 28.52442261 -30 27.734375 C-29.20851563 26.94097717 -28.41703125 26.14757935 -27.6015625 25.33013916 C-25.92954263 23.65675946 -24.25499903 21.98589819 -22.578125 20.31738281 C-20.00287602 17.75286403 -17.43848948 15.17783011 -14.875 12.6015625 C-13.25064116 10.97852473 -11.62566231 9.35610719 -10 7.734375 C-9.22914062 6.95946716 -8.45828125 6.18455933 -7.6640625 5.38616943 C-6.94992188 4.67833313 -6.23578125 3.97049683 -5.5 3.24121094 C-4.8709375 2.61373962 -4.241875 1.98626831 -3.59375 1.33978271 C-2 0 -2 0 0 0 Z " fill="#594E40" transform="translate(128,25)"/>
<path d="M0 0 C3.47512356 1.73756178 5.12248291 2.87686659 7.75878906 5.53173828 C8.83945648 6.61263229 8.83945648 6.61263229 9.94195557 7.71536255 C10.70876648 8.49249603 11.47557739 9.26962952 12.265625 10.0703125 C13.05902283 10.86654022 13.85242065 11.66276794 14.66986084 12.48312378 C17.20130703 15.02575948 19.72570803 17.57526348 22.25 20.125 C23.96568617 21.85071753 25.68182662 23.57598355 27.3984375 25.30078125 C31.60424248 29.52863032 35.80428507 33.76213869 40 38 C38.59779351 41.16800074 36.94085834 43.31175668 34.5 45.75878906 C33.78585938 46.47923401 33.07171875 47.19967896 32.3359375 47.94195557 C31.56507812 48.70876648 30.79421875 49.47557739 30 50.265625 C29.20851563 51.05902283 28.41703125 51.85242065 27.6015625 52.66986084 C25.92954263 54.34324054 24.25499903 56.01410181 22.578125 57.68261719 C20.00287602 60.24713597 17.43848948 62.82216989 14.875 65.3984375 C13.25064116 67.02147527 11.62566231 68.64389281 10 70.265625 C9.22914062 71.04053284 8.45828125 71.81544067 7.6640625 72.61383057 C6.59285156 73.67558502 6.59285156 73.67558502 5.5 74.75878906 C4.55640625 75.69999603 4.55640625 75.69999603 3.59375 76.66021729 C2 78 2 78 0 78 C0 52.26 0 26.52 0 0 Z " fill="#594E40" transform="translate(0,25)"/>
</svg>
